<svg width="186" height="186" viewBox="0 0 186 186" fill="none" xmlns="http://www.w3.org/2000/svg">
<g clip-path="url(#clip0)">
<path d="M92.826 185.651C105.042 185.691 117.145 183.32 128.442 178.673C139.74 174.026 150.009 167.195 158.661 158.571C167.313 149.947 174.178 139.701 178.862 128.419C183.546 117.137 185.957 105.041 185.957 92.8255C185.957 80.6098 183.546 68.5142 178.862 57.2322C174.178 45.9502 167.313 35.7036 158.661 27.08C150.009 18.4563 139.74 11.6252 128.442 6.97827C117.145 2.33132 105.042 -0.0400941 92.826 3.18978e-07C65.193 3.18978e-07 94.9 28.934 62.752 65.151C30.83 97.074 0 69.192 0 92.826C0.000265215 117.445 9.78024 141.055 27.1885 158.463C44.5967 175.871 68.2072 185.651 92.826 185.651V185.651Z" fill="#FFF27E"/>
</g>
<defs>
<clipPath id="clip0">
<rect width="185.651" height="185.651" fill="white"/>
</clipPath>
</defs>
</svg>
